<svg width="800" height="800" viewBox="0 0 800 800" fill="none" xmlns="http://www.w3.org/2000/svg">
<path d="M460.2 215.134V317.6L557 285.6L684.2 112L586.6 40.8L523.4 127.967L460.2 215.134Z" fill="#FB015B"/>
<path d="M340.2 0V215.2L400.2 297.6L460.2 215.134V0H340.2Z" fill="white"/>
<path d="M205.8 400L303.4 368.8L243.4 285.6L38.6 219.2L1 333.6L205.8 400Z" fill="#00B9F1"/>
<path d="M243.4 285.6L340.2 317.6V215.2L213.8 40.8L116.2 112L243.4 285.6Z" fill="#00F2E6"/>
<path d="M243.4 514.4L303.4 431.2L205.8 400L1 466.4L38.6 580.8L243.4 514.4Z" fill="#D63AFF"/>
<path d="M340.2 584.8V482.4L243.4 514.4L116.2 688L213.8 759.2L340.2 584.8Z" fill="#FB015B"/>
<path d="M460.2 584.8L400.2 502.4L340.2 584.8V800H460.2V584.8Z" fill="white"/>
<path d="M557 514.4L460.2 482.4V584.8L586.6 759.2L684.2 688L557 514.4Z" fill="#00F2E6"/>
<path d="M594.6 400L497 431.2L557 514.4L761.8 580.8L799.4 466.4L594.6 400Z" fill="#00B9F1"/>
<path d="M557 285.6L497 368.8L594.6 400L799.4 333.6L761.8 219.2L557 285.6Z" fill="#D63AFF"/>
</svg>
