<svg width="48" height="48" viewBox="0 0 48 48" fill="none" xmlns="http://www.w3.org/2000/svg">
<rect width="48" height="48" rx="10" fill="#242938"/>
<path d="M23.9998 39.6609C32.6492 39.6609 39.6609 32.6492 39.6609 23.9999C39.6609 15.3505 32.6492 8.33887 23.9998 8.33887C15.3505 8.33887 8.33887 15.3505 8.33887 23.9999C8.33887 32.6492 15.3505 39.6609 23.9998 39.6609Z" fill="white"/>
<path d="M24 7.5C14.8873 7.5 7.5 14.8873 7.5 24C7.5 33.1127 14.8873 40.5 24 40.5C33.1127 40.5 40.5 33.1127 40.5 24C40.5 14.8873 33.1127 7.5 24 7.5ZM24 9.17797C32.186 9.17797 38.8221 15.814 38.8221 24C38.8221 32.186 32.186 38.8221 24 38.8221C15.814 38.8221 9.17797 32.186 9.17797 24C9.17797 15.814 15.814 9.17797 24 9.17797Z" fill="#4000BF"/>
<path d="M24.1862 12.2539C30.6733 12.2539 35.932 17.5127 35.932 23.9997C35.932 30.4866 30.6733 35.7454 24.1862 35.7454C17.6992 35.7454 12.4404 30.4866 12.4404 23.9997C12.4404 22.4143 12.7545 20.9023 13.3239 19.5224C14.1552 20.6545 15.4959 21.3895 17.0082 21.3895C19.531 21.3895 21.576 19.3444 21.576 16.8217C21.576 15.3094 20.8411 13.9687 19.7089 13.1374C21.0888 12.568 22.6008 12.2539 24.1862 12.2539Z" fill="url(#paint0_linear_1755_456)"/>
<defs>
<linearGradient id="paint0_linear_1755_456" x1="1187.01" y1="2361.4" x2="1187.01" y2="12.2539" gradientUnits="userSpaceOnUse">
<stop stop-color="#7400E1"/>
<stop offset="1" stop-color="#4000BF"/>
</linearGradient>
</defs>
</svg>
