<svg width="48" height="48" viewBox="0 0 48 48" fill="none" xmlns="http://www.w3.org/2000/svg">
<rect width="48" height="48" rx="10" fill="#242938"/>
<path d="M26.98 16.8743V21.101L30.981 19.781L36.2385 12.62L32.2044 9.683L29.5922 13.2786L26.98 16.8743Z" fill="#FB015B"/>
<path d="M22.02 8V16.877L24.5 20.276L26.98 16.8743V8H22.02Z" fill="white"/>
<path d="M16.4649 24.5L20.499 23.213L18.019 19.781L9.55411 17.042L8 21.761L16.4649 24.5Z" fill="#00B9F1"/>
<path d="M18.019 19.781L22.02 21.101V16.877L16.7956 9.683L12.7615 12.62L18.019 19.781Z" fill="#00F2E6"/>
<path d="M18.019 29.219L20.499 25.787L16.4649 24.5L8 27.239L9.55411 31.958L18.019 29.219Z" fill="#D63AFF"/>
<path d="M22.02 32.123V27.899L18.019 29.219L12.7615 36.38L16.7956 39.317L22.02 32.123Z" fill="#FB015B"/>
<path d="M26.98 32.123L24.5 28.724L22.02 32.123V41H26.98V32.123Z" fill="white"/>
<path d="M30.981 29.219L26.98 27.899V32.123L32.2044 39.317L36.2385 36.38L30.981 29.219Z" fill="#00F2E6"/>
<path d="M32.5351 24.5L28.501 25.787L30.981 29.219L39.4459 31.958L41 27.239L32.5351 24.5Z" fill="#00B9F1"/>
<path d="M30.981 19.781L28.501 23.213L32.5351 24.5L41 21.761L39.4459 17.042L30.981 19.781Z" fill="#D63AFF"/>
</svg>
